<svg xmlns="http://www.w3.org/2000/svg" viewBox="0 0 240 110" stroke="currentColor" fill="none" stroke-width="1"><rect x="17" y="32" width="26" height="8"/><rect x="20" y="22" width="20" height="8"/><rect x="23" y="12" width="14" height="8"/><rect x="47" y="32" width="26" height="8"/><rect x="50" y="22" width="20" height="8"/><rect x="53" y="12" width="14" height="8"/><rect x="77" y="32" width="26" height="8"/><rect x="80" y="22" width="20" height="8"/><rect x="83" y="12" width="14" height="8"/><rect x="107" y="32" width="26" height="8"/><rect x="110" y="22" width="20" height="8"/><rect x="113" y="12" width="14" height="8"/><rect x="137" y="32" width="26" height="8"/><rect x="140" y="22" width="20" height="8"/><rect x="143" y="12" width="14" height="8"/><rect x="167" y="32" width="26" height="8"/><rect x="170" y="22" width="20" height="8"/><rect x="173" y="12" width="14" height="8"/><rect x="197" y="32" width="26" height="8"/><rect x="200" y="22" width="20" height="8"/><rect x="203" y="12" width="14" height="8"/><line x1="120" y1="100" x2="120" y2="44"/><line x1="120" y1="100" x2="135.0" y2="44"/><line x1="120" y1="100" x2="105.0" y2="44"/><line x1="120" y1="100" x2="152.3" y2="44"/><line x1="120" y1="100" x2="87.7" y2="44"/><line x1="120" y1="100" x2="176" y2="44"/><line x1="120" y1="100" x2="64" y2="44"/><line x1="120" y1="100" x2="217" y2="44"/><line x1="120" y1="100" x2="23" y2="44"/><line x1="120" y1="100" x2="240" y2="60"/><line x1="120" y1="100" x2="0" y2="60"/><line x1="120" y1="100" x2="240" y2="96"/><line x1="120" y1="100" x2="0" y2="96"/><polygon fill="currentColor" points="120,93 127,100 120,107 113,100"/><line x1="10" y1="105" x2="230" y2="105" stroke-width="2"/></svg>
